User Type,Username,Date,Text
,BIG_SPUD,2013-03-21T07:43Z,"If you dont seed, a virgin wont want to have sex.  SAVE THE WORLD AND SEED!!!!!!"
,nz77788,2013-03-23T08:56Z,lol evil turtle
,Tasinahri,2013-03-28T20:57Z,Thank you :)
,isaac2012,2013-05-04T21:35Z,downloading. I will let you know how the quality is
,ViolentC,2013-05-12T15:44Z,"As a bonus you get Episode 15. ""Turban Cowboy"" BANNED world wide for depicting the Boston bombings 3 weeks prior to the actual event.
Inside Job much??"
,piromani,2013-05-18T22:07Z,"Here's some encoding details:

General
Complete name                            : C:UsersuserDownloadsFamily Guy Season 11 Ep. 1 - 15 HDTV1.mp4
Format                                   : MPEG-4
Format profile                           : Base Media
Codec ID                                 : isom
File size                                : 156 MiB
Duration                                 : 21mn 39s
Overall bit rate mode                    : Variable
Overall bit rate                         : 1 005 Kbps
Encoded date                             : UTC 2012-09-28 18:17:34
Tagged date                              : UTC 2012-09-28 18:17:34

Video
ID                                       : 1
Format                                   : AVC
Format/Info                              : Advanced Video Codec
Format profile                           : High@L3.1
Format settings, CABAC                   : Yes
Format settings, ReFrames                : 5 frames
Codec ID                                 : avc1
Codec ID/Info                            : Advanced Video Coding
Duration                                 : 21mn 39s
Bit rate                                 : 895 Kbps
Maximum bit rate                         : 6 796 Kbps
Width                                    : 720 pixels
Height                                   : 404 pixels
Display aspect ratio                     : 16:9
Frame rate mode                          : Constant
Frame rate                               : 23.976 fps
Color space                              : YUV
Chroma subsampling                       : 4:2:0
Bit depth                                : 8 bits
Scan type                                : Progressive
Bits/(Pixel*Frame)                       : 0.128
Stream size                              : 139 MiB (89%)
Writing library                          : x264 core 128 r2216 198a7ea
Encoding settings                        : cabac=1 / ref=5 / deblock=1:2:2 / analyse=0x3:0x133 / me=umh / subme=9 / psy=1 / psy_rd=1.00:0.00 / mixed_ref=1 / me_range=16 / chroma_me=1 / trellis=2 / 8x8dct=1 / cqm=0 / deadzone=21,11 / fast_pskip=1 / chroma_qp_offset=-2 / threads=20 / lookahead_threads=3 / sliced_threads=0 / nr=0 / decimate=1 / interlaced=0 / bluray_compat=0 / constrained_intra=0 / bframes=3 / b_pyramid=2 / b_adapt=2 / b_bias=0 / direct=3 / weightb=1 / open_gop=0 / weightp=2 / keyint=250 / keyint_min=23 / scenecut=40 / intra_refresh=0 / rc_lookahead=60 / rc=crf / mbtree=1 / crf=19.0 / qcomp=0.60 / qpmin=0 / qpmax=69 / qpstep=4 / ip_ratio=1.40 / aq=1:1.00
Encoded date                             : UTC 2012-09-29 17:02:33
Tagged date                              : UTC 2012-09-28 18:17:37
Matrix coefficients                      : BT.709

Audio
ID                                       : 2
Format                                   : AAC
Format/Info                              : Advanced Audio Codec
Format profile                           : LC
Codec ID                                 : 40
Duration                                 : 21mn 39s
Bit rate mode                            : Variable
Bit rate                                 : 106 Kbps
Maximum bit rate                         : 143 Kbps
Channel(s)                               : 2 channels
Channel positions                        : Front: L R
Sampling rate                            : 48.0 KHz
Compression mode                         : Lossy
Delay relative to video                  : 83ms
Stream size                              : 16.5 MiB (11%)
Encoded date                             : UTC 2012-09-28 18:17:36
Tagged date                              : UTC 2012-09-28 18:17:37"
